<svg xmlns="http://www.w3.org/2000/svg">
  <symbol id="icon-message" viewBox="0 0 24 24" fill="none"
    stroke="currentColor" stroke-width="2" stroke-linecap="round" stroke-linejoin="round">
    <path stroke="none" d="M0 0h24v24H0z" fill="none" />
    <path d="M8 9h8" />
    <path d="M8 13h6" />
    <path
      d="M18 4a3 3 0 0 1 3 3v8a3 3 0 0 1 -3 3h-5l-5 3v-3h-2a3 3 0 0 1 -3 -3v-8a3 3 0 0 1 3 -3h12z" />
  </symbol>
  <symbol id="icon-sun" viewBox="0 0 24 24" fill="currentColor">
    <path
      d="M12 2.25a.75.75 0 0 1 .75.75v2.25a.75.75 0 0 1-1.5 0V3a.75.75 0 0 1 .75-.75ZM7.5 12a4.5 4.5 0 1 1 9 0 4.5 4.5 0 0 1-9 0ZM18.894 6.166a.75.75 0 0 0-1.06-1.06l-1.591 1.59a.75.75 0 1 0 1.06 1.061l1.591-1.59ZM21.75 12a.75.75 0 0 1-.75.75h-2.25a.75.75 0 0 1 0-1.5H21a.75.75 0 0 1 .75.75ZM17.834 18.894a.75.75 0 0 0 1.06-1.06l-1.59-1.591a.75.75 0 1 0-1.061 1.06l1.59 1.591ZM12 18a.75.75 0 0 1 .75.75V21a.75.75 0 0 1-1.5 0v-2.25A.75.75 0 0 1 12 18ZM7.758 17.303a.75.75 0 0 0-1.061-1.06l-1.591 1.59a.75.75 0 0 0 1.06 1.061l1.591-1.59ZM6 12a.75.75 0 0 1-.75.75H3a.75.75 0 0 1 0-1.5h2.25A.75.75 0 0 1 6 12ZM6.697 7.757a.75.75 0 0 0 1.06-1.06l-1.59-1.591a.75.75 0 0 0-1.061 1.06l1.59 1.591Z" />
  </symbol>
  <symbol id="icon-moon" viewBox="0 0 24 24" fill="currentColor">
    <path fill-rule="evenodd"
      d="M9.528 1.718a.75.75 0 0 1 .162.819A8.97 8.97 0 0 0 9 6a9 9 0 0 0 9 9 8.97 8.97 0 0 0 3.463-.69.75.75 0 0 1 .981.98 10.503 10.503 0 0 1-9.694 6.46c-5.799 0-10.5-4.7-10.5-10.5 0-4.368 2.667-8.112 6.46-9.694a.75.75 0 0 1 .818.162Z"
      clip-rule="evenodd" />
  </symbol>
  <symbol id="icon-experience" viewBox="0 0 24 24" fill="none" stroke="currentColor"
    stroke-width="2" stroke-linecap="round" stroke-linejoin="round">
    <rect x="2" y="3" width="20" height="14" rx="2" ry="2" />
    <line x1="8" y1="21" x2="16" y2="21" />
    <line x1="12" y1="17" x2="12" y2="21" />
    <circle cx="12" cy="10" r="3" />
  </symbol>
  <symbol id="icon-approach" viewBox="0 0 24 24" fill="none" stroke="currentColor" stroke-width="2"
    stroke-linecap="round" stroke-linejoin="round">
    <path d="M9 12l2 2 4-4" />
    <path d="M21 12c-1 0-3-1-3-3s2-3 3-3 3 1 3 3-2 3-3 3" />
    <path d="M3 12c1 0 3-1 3-3s-2-3-3-3-3 1-3 3 2 3 3 3" />
    <path d="M12 3c0 1-1 3-3 3s-3-2-3-3 1-3 3-3 3 2 3 3" />
    <path d="M12 21c0-1 1-3 3-3s3 2 3 3-1 3-3 3-3-2-3-3" />
  </symbol>
  <symbol id="icon-goals" viewBox="0 0 24 24" fill="none" stroke="currentColor" stroke-width="2"
    stroke-linecap="round" stroke-linejoin="round">
    <circle cx="12" cy="12" r="10" />
    <circle cx="12" cy="12" r="6" />
    <circle cx="12" cy="12" r="2" />
    <path d="M12 2v4" />
    <path d="M12 18v4" />
    <path d="M2 12h4" />
    <path d="M18 12h4" />
  </symbol>
  <!-- Skills icons -->
  <symbol id="icon-html" viewBox="0 0 24 24" fill="currentColor">
    <path
      d="M1.5 0h21l-1.91 21.563L11.977 24l-8.564-2.438L1.5 0zm7.031 9.75l-.232-2.718 10.059.003.23-2.622L5.412 4.41l.698 8.01h9.126l-.326 3.426-2.91.804-2.955-.81-.188-2.11H6.248l.33 4.171L12 19.351l5.379-1.443.744-8.157H8.531z" />
  </symbol>
  <symbol id="icon-css" viewBox="0 0 24 24" fill="currentColor">
    <path
      d="M1.5 0h21l-1.91 21.563L11.977 24l-8.565-2.438L1.5 0zm17.09 4.413L5.41 4.41l.213 2.622 10.125.002-.255 2.716h-6.64l.24 2.573h6.182l-.366 3.523-2.91.804-2.956-.81-.188-2.11h-2.61l.29 3.855L12 19.288l5.373-1.53L18.59 4.414z" />
  </symbol>
  <symbol id="icon-js" viewBox="0 0 24 24" fill="currentColor">
    <path
      d="M0 0h24v24H0V0zm22.034 18.276c-.175-1.095-.888-2.015-3.003-2.873-.736-.345-1.554-.585-1.797-1.14-.091-.33-.105-.51-.046-.705.15-.646.915-.84 1.515-.66.39.12.75.42.976.9 1.034-.676 1.034-.676 1.755-1.125-.27-.42-.404-.601-.586-.78-.63-.705-1.469-1.065-2.834-1.034l-.705.089c-.676.165-1.32.525-1.71 1.005-1.14 1.291-.811 3.541.569 4.471 1.365 1.02 3.361 1.244 3.616 2.205.24 1.17-.87 1.545-1.966 1.41-.811-.18-1.26-.586-1.755-1.336l-1.83 1.051c.21.48.45.689.81 1.109 1.74 1.756 6.09 1.666 6.871-1.004.029-.09.24-.705.074-1.65l.046.067zm-8.983-7.245h-2.248c0 1.938-.009 3.864-.009 5.805 0 1.232.063 2.363-.138 2.711-.33.689-1.18.601-1.566.48-.396-.196-.597-.466-.83-.855-.063-.105-.11-.196-.127-.196l-1.825 1.125c.305.63.75 1.172 1.324 1.517.855.51 2.004.675 3.207.405.783-.226 1.458-.691 1.811-1.411.51-.93.402-2.07.397-3.346.012-2.054 0-4.109 0-6.179l.004-.056z" />
  </symbol>
  <symbol id="icon-sass" viewBox="0 0 24 24" fill="currentColor">
    <path
      d="M12 0c6.627 0 12 5.373 12 12 0 6.627-5.373 12-12 12C5.373 24 0 18.627 0 12 0 5.373 5.373 0 12 0zm-.001 5.5c-3.179 0-5.75 2.571-5.75 5.75s2.571 5.75 5.75 5.75 5.75-2.571 5.75-5.75-2.571-5.75-5.75-5.75z" />
  </symbol>
  <symbol id="icon-git" viewBox="0 0 24 24" fill="currentColor">
    <path
      d="M23.546 10.93L13.067.452c-.604-.603-1.582-.603-2.188 0L8.708 2.627l2.76 2.76c.645-.215 1.379-.07 1.889.441.516.515.658 1.258.438 1.9l2.658 2.66c.645-.223 1.387-.078 1.9.435.721.72.721 1.884 0 2.604-.719.719-1.881.719-2.6 0-.539-.541-.674-1.337-.404-1.996L12.86 8.955v6.525c.176.086.342.203.488.348.713.721.713 1.883 0 2.6-.719.721-1.889.721-2.609 0-.719-.719-.719-1.879 0-2.598.182-.18.387-.316.605-.406V8.835c-.217-.091-.424-.222-.6-.401-.545-.545-.676-1.342-.396-2.009L7.636 3.7.45 10.881c-.6.605-.6 1.584 0 2.189l10.48 10.477c.604.604 1.582.604 2.186 0l10.43-10.43c.605-.603.605-1.582 0-2.187" />
  </symbol>
  <symbol id="icon-webpack" viewBox="0 0 24 24" fill="currentColor">
    <path
      d="M22.1987 18.498l-9.7699 5.5022v-4.2855l6.0872-3.3338 3.6827 2.117zm.6683-.6026V6.8253l-3.5752 2.0613v7.0094l3.5752 2.0613zm-21.0657.6026l9.7699 5.5022v-4.2855L5.4939 16.3809l-3.6827 2.117zm-.6683-.6026V6.8253l3.5751 2.0613v7.0094L1.1330 17.8954zm.4183-12.2808L12 .8944l9.4497 5.3308-9.4497 5.4308L2.5513 5.9146zM13.0131 20.5175l6.0432-3.3078V9.9317l-6.0432 3.4819v7.1039zm-2.0262 0L4.9437 17.2097V9.9317l6.0432 3.4819v7.1039z" />
  </symbol>
  <symbol id="icon-responsive" viewBox="0 0 24 24" fill="none" stroke="currentColor"
    stroke-width="2">
    <rect x="2" y="3" width="20" height="14" rx="2" ry="2" />
    <line x1="8" y1="21" x2="16" y2="21" />
    <line x1="12" y1="17" x2="12" y2="21" />
    <rect x="18" y="8" width="4" height="8" rx="1" />
  </symbol>
  <symbol id="icon-performance" viewBox="0 0 24 24" fill="none" stroke="currentColor"
    stroke-width="2">
    <circle cx="12" cy="12" r="10" />
    <polyline points="12,6 12,12 16,14" />
  </symbol>
  <!-- Portfolio icons -->
  <symbol id="icon-external" viewBox="0 0 24 24" fill="none" stroke="currentColor" stroke-width="2">
    <path d="M18 13v6a2 2 0 0 1-2 2H5a2 2 0 0 1-2-2V8a2 2 0 0 1 2-2h6" />
    <polyline points="15,3 21,3 21,9" />
    <line x1="10" y1="14" x2="21" y2="3" />
  </symbol>
  <symbol id="icon-info" viewBox="0 0 24 24" fill="none" stroke="currentColor" stroke-width="2">
    <circle cx="12" cy="12" r="10" />
    <line x1="12" y1="16" x2="12" y2="12" />
    <line x1="12" y1="8" x2="12.01" y2="8" />
  </symbol>
  <!-- Works icons -->
  <symbol id="icon-quality" viewBox="0 0 24 24" fill="none" stroke="currentColor" stroke-width="2">
    <path d="M9 12l2 2 4-4" />
    <path
      d="M12 2l3.09 6.26L22 9.27l-5 4.87 1.18 6.88L12 17.77l-6.18 3.25L7 14.14 2 9.27l6.91-1.01L12 2z" />
  </symbol>
  <symbol id="icon-time" viewBox="0 0 24 24" fill="none" stroke="currentColor" stroke-width="2">
    <circle cx="12" cy="12" r="10" />
    <polyline points="12,6 12,12 16,14" />
  </symbol>
  <symbol id="icon-communication" viewBox="0 0 24 24" fill="none" stroke="currentColor"
    stroke-width="2">
    <path d="M21 15a2 2 0 0 1-2 2H7l-4 4V5a2 2 0 0 1 2-2h14a2 2 0 0 1 2 2z" />
  </symbol>
  <symbol id="icon-innovation" viewBox="0 0 24 24" fill="none" stroke="currentColor"
    stroke-width="2">
    <path d="M9 12l2 2 4-4" />
    <path d="M12 2a3 3 0 0 0-3 3c0 1.5 1.5 3 3 3s3-1.5 3-3a3 3 0 0 0-3-3z" />
    <path d="M12 14v8" />
    <path d="M8 18h8" />
  </symbol>
  <!-- Contact icons -->
  <symbol id="icon-telegram" viewBox="0 0 24 24" fill="currentColor">
    <path
      d="M11.944 0A12 12 0 0 0 0 12a12 12 0 0 0 12 12 12 12 0 0 0 12-12A12 12 0 0 0 12 0a12 12 0 0 0-.056 0zm4.962 7.224c.1-.002.321.023.465.14a.506.506 0 0 1 .171.325c.016.093.036.306.02.472-.18 1.898-.962 6.502-1.36 8.627-.168.9-.499 1.201-.82 1.23-.696.065-1.225-.46-1.9-.902-1.056-.693-1.653-1.124-2.678-1.8-1.185-.78-.417-1.21.258-1.91.177-.184 3.247-2.977 3.307-3.23.007-.032.014-.15-.056-.212s-.174-.041-.249-.024c-.106.024-1.793 1.14-5.061 3.345-.48.33-.913.49-1.302.48-.428-.008-1.252-.241-1.865-.44-.752-.245-1.349-.374-1.297-.789.027-.216.325-.437.893-.663 3.498-1.524 5.83-2.529 6.998-3.014 3.332-1.386 4.025-1.627 4.476-1.635z" />
  </symbol>
  <symbol id="icon-email" viewBox="0 0 24 24" fill="none" stroke="currentColor" stroke-width="2">
    <path d="M4 4h16c1.1 0 2 .9 2 2v12c0 1.1-.9 2-2 2H4c-1.1 0-2-.9-2-2V6c0-1.1.9-2 2-2z" />
    <polyline points="22,6 12,13 2,6" />
  </symbol>
  <symbol id="icon-social" viewBox="0 0 24 24" fill="none" stroke="currentColor" stroke-width="2">
    <path d="M16 8a6 6 0 0 1 6 6v7h-4v-7a2 2 0 0 0-2-2 2 2 0 0 0-2 2v7h-4v-7a6 6 0 0 1 6-6z" />
    <rect x="2" y="9" width="4" height="12" />
    <circle cx="4" cy="4" r="2" />
  </symbol>
  <symbol id="icon-send" viewBox="0 0 24 24" fill="none" stroke="currentColor" stroke-width="2">
    <line x1="22" y1="2" x2="11" y2="13" />
    <polygon points="22,2 15,22 11,13 2,9 22,2" />
  </symbol>
  <symbol id="icon-chevron" viewBox="0 0 24 24" fill="none" stroke="currentColor" stroke-width="2">
    <polyline points="6,9 12,15 18,9" />
  </symbol>
</svg>